HIERARCHY
ROOT Hips
{
	OFFSET 0.000000 0.000000 0.000000
	CHANNELS 6 Xposition Yposition Zposition Xrotation Yrotation Zrotation
	JOINT LeftUpLeg_virtual
	{
		OFFSET 0.000000 0.000000 0.000000
		CHANNELS 3 Xrotation Yrotation Zrotation
		JOINT LeftUpLeg
		{
			OFFSET 10.205400 -3.823500 0.155100
			CHANNELS 3 Xrotation Yrotation Zrotation
			JOINT LeftLeg
			{
				OFFSET 0.708757 -12.982077 0.567790
				CHANNELS 3 Xrotation Yrotation Zrotation
				JOINT LeftFoot
				{
					OFFSET -0.708756 -10.717838 -2.184338
					CHANNELS 3 Xrotation Yrotation Zrotation
					JOINT LeftToeBase
					{
						OFFSET 0.108149 -7.191104 7.560241
						CHANNELS 3 Xrotation Yrotation Zrotation
						JOINT LeftToe_End
						{
							OFFSET 0.070230 0.081724 4.490308
							CHANNELS 3 Xrotation Yrotation Zrotation
							End Site
							{
								OFFSET 0 0 0
							}
						}
					}
				}
			}
		}
	}
	JOINT RightUpLeg_virtual
	{
		OFFSET 0.000000 0.000000 0.000000
		CHANNELS 3 Xrotation Yrotation Zrotation
		JOINT RightUpLeg
		{
			OFFSET -10.205400 -3.823500 0.005500
			CHANNELS 3 Xrotation Yrotation Zrotation
			JOINT RightLeg
			{
				OFFSET -0.708756 -12.982134 0.610632
				CHANNELS 3 Xrotation Yrotation Zrotation
				JOINT RightFoot
				{
					OFFSET 0.708754 -10.717769 -1.945823
					CHANNELS 3 Xrotation Yrotation Zrotation
					JOINT RightToeBase
					{
						OFFSET -0.108140 -7.191069 7.372968
						CHANNELS 3 Xrotation Yrotation Zrotation
						JOINT RightToe_End
						{
							OFFSET -0.070227 0.081735 4.479403
							CHANNELS 3 Xrotation Yrotation Zrotation
							End Site
							{
								OFFSET 0 0 0
							}
						}
					}
				}
			}
		}
	}
	JOINT Spine_virtual
	{
		OFFSET 0.000000 0.000000 0.000000
		CHANNELS 3 Xrotation Yrotation Zrotation
		JOINT Spine
		{
			OFFSET 0.000000 6.876099 0.125700
			CHANNELS 3 Xrotation Yrotation Zrotation
			JOINT Spine1
			{
				OFFSET 0.000000 5.730043 0.104720
				CHANNELS 3 Xrotation Yrotation Zrotation
				JOINT Spine1_split
				{
					OFFSET 0.000000 5.730043 0.104720
					CHANNELS 3 Xrotation Yrotation Zrotation
					JOINT Spine2
					{
						OFFSET 0.000000 5.730043 0.104720
						CHANNELS 3 Xrotation Yrotation Zrotation
						JOINT Neck_virtual
						{
							OFFSET 0.000000 0.000000 0.000000
							CHANNELS 3 Xrotation Yrotation Zrotation
							JOINT Neck
							{
								OFFSET 0.000000 10.314075 0.188496
								CHANNELS 3 Xrotation Yrotation Zrotation
								JOINT Head
								{
									OFFSET 0.000000 7.643700 -2.377400
									CHANNELS 3 Xrotation Yrotation Zrotation
									JOINT HeadTop_End
									{
										OFFSET 0.000000 43.788605 -13.619600
										CHANNELS 3 Xrotation Yrotation Zrotation
										End Site
										{
											OFFSET 0 0 0
										}
									}
								}
							}
						}
						JOINT LeftShoulder_virtual
						{
							OFFSET 0.000000 0.000000 0.000000
							CHANNELS 3 Xrotation Yrotation Zrotation
							JOINT LeftShoulder
							{
								OFFSET 2.196100 4.412489 0.087492
								CHANNELS 3 Xrotation Yrotation Zrotation
								JOINT LeftShoulder_split
								{
									OFFSET 2.196100 4.412489 0.087492
									CHANNELS 3 Xrotation Yrotation Zrotation
									JOINT LeftArm
									{
										OFFSET 8.771219 -2.981674 -0.026999
										CHANNELS 3 Xrotation Yrotation Zrotation
										JOINT LeftForeArm
										{
											OFFSET 8.512804 0.000000 -0.000000
											CHANNELS 3 Xrotation Yrotation Zrotation
											JOINT LeftHand
											{
												OFFSET 18.484802 0.000000 -0.000000
												CHANNELS 3 Xrotation Yrotation Zrotation
												End Site
												{
													OFFSET 0 0 0
												}
											}
										}
									}
								}
							}
						}
						JOINT RightShoulder_virtual
						{
							OFFSET 0.000000 0.000000 0.000000
							CHANNELS 3 Xrotation Yrotation Zrotation
							JOINT RightShoulder
							{
								OFFSET -2.196100 4.412496 0.070690
								CHANNELS 3 Xrotation Yrotation Zrotation
								JOINT RightShoulder_split
								{
									OFFSET -2.196100 4.412496 0.070690
									CHANNELS 3 Xrotation Yrotation Zrotation
									JOINT RightArm
									{
										OFFSET -8.771282 -2.981682 -0.094208
										CHANNELS 3 Xrotation Yrotation Zrotation
										JOINT RightForeArm
										{
											OFFSET -8.494598 0.000000 0.000000
											CHANNELS 3 Xrotation Yrotation Zrotation
											JOINT RightHand
											{
												OFFSET -18.483803 0.000000 0.000001
												CHANNELS 3 Xrotation Yrotation Zrotation
												End Site
												{
													OFFSET 0 0 0
												}
											}
										}
									}
								}
							}
						}
					}
				}
			}
		}
	}
}
MOTION
Frames: 5
Frame Time: 0.03333333
0.536369 27.770636 -0.384356 0.000000 0.000000 0.000000 -8.024915 -48.084914 -3.521195 -29.136105 2.877730 28.365057 61.643748 -2.024522 4.197035 -20.376544 -5.323318 -16.995637 -5.355415 0.860107 2.582290 0.000000 0.000000 0.000000 -8.766336 -46.450645 -2.943117 -12.645249 -10.563469 -38.866293 62.684546 7.267183 -0.214985 -36.891539 -18.593216 28.995396 0.666777 0.235436 -0.778645 0.000000 0.000000 0.000000 -8.521131 -46.848752 -4.125191 12.020960 7.769857 -2.371802 0.882317 1.261665 -0.505481 0.065564 -0.770675 1.294400 0.000000 0.000000 0.000000 0.775464 1.878345 -0.523541 1.850881 13.951354 5.325809 6.189701 16.846779 -2.686700 0.000000 0.000000 0.000000 2.502402 1.225880 0.093326 0.661808 3.545081 -6.390876 -3.481036 -3.547517 -4.240632 -50.371248 5.084347 -45.133047 175.158671 -72.205837 177.083473 0.000000 0.000000 0.000000 2.078415 1.441469 -0.497064 4.182467 11.694557 -5.292714 -1.787515 -5.511350 -1.929242 -51.569147 20.250691 85.974248 179.785482 73.316610 -177.714637 0.000000 0.000000 0.000000 
0.666224 27.557875 -0.055498 0.000000 0.000000 0.000000 -8.216740 -48.884750 -3.407003 -30.508054 2.058091 28.609723 64.356078 -2.191922 3.818747 -20.204294 -4.998104 -17.830714 -7.541646 0.648378 2.755005 0.000000 0.000000 0.000000 -9.185490 -47.501848 -2.915343 -13.271137 -10.577237 -39.953714 64.772958 8.629811 -0.188516 -38.016478 -18.956152 29.146692 1.539548 0.149291 -0.591023 0.000000 0.000000 0.000000 -8.278667 -47.306225 -3.826025 12.504269 7.982059 -2.503964 1.069356 1.143661 -0.468843 0.424754 -0.741721 1.545807 0.000000 0.000000 0.000000 0.837427 1.764838 -0.507899 1.806529 13.937821 5.358533 6.293017 16.906733 -2.546840 0.000000 0.000000 0.000000 2.410699 1.175241 0.152190 0.550242 3.358339 -6.786607 -1.265461 -5.512139 -3.538530 -52.288158 5.008798 -45.906671 171.585540 -72.191643 173.191836 0.000000 0.000000 0.000000 2.032610 1.357176 -0.463525 4.280518 12.283186 -5.212349 -1.369475 -5.868615 -1.236022 -52.733917 22.232778 86.293136 -179.550674 73.570358 -178.238267 0.000000 0.000000 0.000000 
0.748524 27.072077 0.364163 0.000000 0.000000 0.000000 -8.148384 -50.025040 -2.901819 -33.137079 0.284301 29.935189 70.157886 -4.774138 2.572425 -20.529944 -6.310400 -20.012254 -11.046715 -0.159548 4.573612 0.000000 0.000000 0.000000 -9.203466 -48.679677 -2.515571 -14.017750 -9.277852 -41.753998 67.131785 10.371793 -1.187501 -38.450509 -19.585665 29.974258 0.659714 0.017823 0.223626 0.000000 0.000000 0.000000 -8.057753 -48.486891 -3.337033 13.625372 8.421756 -2.528518 1.019708 1.028755 -0.590259 0.612351 -0.742942 1.362628 0.000000 0.000000 0.000000 0.561095 1.613873 -0.646549 1.342100 14.038455 5.509532 7.046185 17.127886 -2.134755 0.000000 0.000000 0.000000 2.180553 1.103772 0.046418 0.429735 3.236913 -7.506671 0.433676 -6.319328 -2.501917 -52.831083 4.648392 -46.394156 166.811197 -72.467795 168.164872 0.000000 0.000000 0.000000 1.624030 1.245716 -0.541678 4.320877 12.907724 -4.927934 -1.493851 -5.309348 -0.926268 -53.624136 23.224619 85.870047 -179.043464 74.285547 -179.259981 0.000000 0.000000 0.000000 
0.824902 26.358387 0.843499 0.000000 0.000000 0.000000 -7.888802 -51.401507 -2.162510 -36.763333 -2.219683 32.040715 77.720900 -9.385342 1.051761 -21.467069 -8.641995 -22.801343 -13.633202 -1.335978 7.053737 0.000000 0.000000 0.000000 -8.748556 -49.823184 -1.733254 -15.003834 -6.900999 -44.187649 69.289469 12.200162 -2.925383 -38.439963 -20.171842 30.965824 -1.158332 -0.171465 1.328541 0.000000 0.000000 0.000000 -7.978942 -50.415132 -2.866088 15.181743 8.991208 -2.406144 0.755751 0.985522 -0.853716 0.663548 -0.211524 0.962548 0.000000 0.000000 0.000000 -0.020925 1.530217 -0.889650 0.474101 14.230785 5.687802 8.118554 17.746368 -1.728032 0.000000 0.000000 0.000000 1.743307 1.061289 -0.188818 0.357771 3.438939 -8.268703 1.636230 -5.696455 -1.296911 -51.324794 5.316565 -45.890982 163.908913 -71.970987 165.109072 0.000000 0.000000 0.000000 0.875521 1.170197 -0.748048 4.280296 13.438832 -4.652754 -1.724132 -3.966230 -0.878131 -54.255457 22.939141 84.957342 -177.776000 75.159040 178.392247 0.000000 0.000000 0.000000 
0.977268 25.469490 1.459549 0.000000 0.000000 0.000000 -7.351095 -53.035063 -1.194491 -40.469178 -5.090382 34.428340 84.669122 -14.222704 -0.448805 -23.707708 -10.874675 -24.052967 -14.362547 -2.464364 8.965658 0.000000 0.000000 0.000000 -7.997950 -50.888574 -0.727462 -16.549152 -3.778218 -47.237486 70.953952 13.892474 -4.828253 -38.134299 -20.330458 31.678154 -2.031048 -0.306170 2.184419 0.000000 0.000000 0.000000 -8.002770 -52.746266 -2.445869 16.934949 9.496951 -2.102126 0.293253 1.032110 -1.220314 0.692044 0.253296 0.519859 0.000000 0.000000 0.000000 -0.768915 1.558218 -1.187013 -0.571728 14.576310 5.746146 9.072321 18.999368 -1.625218 0.000000 0.000000 0.000000 1.110927 1.089021 -0.508862 0.334613 4.057299 -8.910887 2.267446 -4.188237 0.331305 -47.779898 7.989487 -44.160755 165.989457 -69.452164 167.062916 0.000000 0.000000 0.000000 -0.097749 1.146022 -1.072636 4.108539 13.672380 -4.687581 -2.001736 -2.757096 -0.816071 -54.876632 22.352286 84.260970 -175.424407 75.986217 174.611355 0.000000 0.000000 0.000000 
